<svg width="1159" height="643" viewBox="0 0 1159 643" fill="none" xmlns="http://www.w3.org/2000/svg">
<path d="M32.7726 29.682V66.9627L100.9 67.2595V95.22H32.7726V176.43H0V0H105.917V29.682H32.7726Z" fill="#F9F8F4"/>
<path d="M191.411 67.1711V133.659C191.517 137.783 190.577 141.868 188.68 145.531C186.93 148.773 184.294 151.449 181.08 153.249C177.539 155.133 173.572 156.073 169.562 155.98C166.955 156.199 164.334 155.772 161.932 154.736C159.529 153.701 157.419 152.089 155.788 150.043C152.652 145.133 151.155 139.355 151.514 133.54V67.0523H119.691V136.864C119.691 149.826 122.897 160.036 129.309 167.496C135.721 174.956 145.418 178.676 158.401 178.657C165.148 179.004 171.852 177.396 177.708 174.026C183.564 170.657 188.322 165.668 191.411 159.66V176.282H222.046V67.0523L191.411 67.1711Z" fill="#F9F8F4"/>
<path d="M302.523 67.2008V93.0835H283.524V176.431H253.839V93.0835H235.078V67.2008H253.839V29.2078H283.524V67.2008H302.523Z" fill="#F9F8F4"/>
<path d="M388.827 67.1711V133.659C388.932 137.783 387.993 141.868 386.096 145.531C384.346 148.773 381.71 151.449 378.496 153.249C374.955 155.133 370.988 156.073 366.978 155.98C364.371 156.199 361.75 155.772 359.348 154.736C356.945 153.701 354.835 152.089 353.204 150.043C350.068 145.133 348.571 139.355 348.93 133.54V67.0523H317.107V136.864C317.107 149.826 320.313 160.036 326.725 167.496C333.137 174.956 342.834 178.676 355.817 178.657C362.564 179.004 369.268 177.396 375.124 174.026C380.979 170.657 385.738 165.668 388.827 159.66V176.282H419.462V67.0523L388.827 67.1711Z" fill="#F9F8F4"/>
<path d="M513.67 73.1073L499.659 99.2274C497.792 97.4575 495.671 95.9768 493.365 94.8345C490.863 93.7286 488.144 93.201 485.41 93.291C481.922 93.1488 478.489 94.1953 475.673 96.2592C472.885 98.5017 470.82 101.516 469.736 104.926C468.285 109.246 467.602 113.787 467.718 118.343V176.282H437.438V67.052H467.599V80.5278C470.172 76.6685 473.385 73.2758 477.098 70.4952C481.833 66.737 487.677 64.6498 493.722 64.5588C497.584 64.5417 501.414 65.2671 505.002 66.6958C508.416 68.0141 511.411 70.2292 513.67 73.1073Z" fill="#F9F8F4"/>
<path d="M625.406 90.3229C621.087 82.1325 614.321 75.4921 606.051 71.3264C596.272 66.9426 585.664 64.716 574.948 64.7979C564.232 64.8799 553.66 67.2686 543.949 71.8014C535.319 76.2172 528.176 83.0705 523.407 91.5103C518.645 100.85 516.163 111.184 516.163 121.667C516.163 132.15 518.645 142.484 523.407 151.824C528.203 160.273 535.336 167.158 543.949 171.652C553.564 176.58 564.258 179.029 575.059 178.775C586.81 179.091 598.449 176.437 608.901 171.058C618.527 165.679 626.401 157.641 631.58 147.906L604.864 139.595C602.041 144.545 597.94 148.646 592.989 151.468C587.589 154.21 581.589 155.557 575.534 155.386C570.11 155.536 564.755 154.135 560.098 151.349C555.759 148.567 552.396 144.499 550.48 139.714C549.057 136.219 548.128 132.542 547.719 128.791H631.818C631.966 127.841 632.085 126.565 632.174 124.992C632.263 123.418 632.174 122.023 632.174 120.48C632.451 110.022 630.126 99.6593 625.406 90.3229ZM545.255 109.676C545.769 107.036 546.535 104.452 547.541 101.958C549.349 97.2146 552.586 93.1491 556.803 90.3229C561.34 87.5741 566.582 86.2121 571.883 86.4049C576.384 86.2952 580.826 87.4467 584.707 89.7293C588.283 91.8659 591.2 94.947 593.138 98.6339C594.876 102.029 595.887 105.749 596.106 109.557L545.255 109.676Z" fill="#F9F8F4"/>
<path d="M32.7726 237.745V272.889H100.93V301.146H32.7726V353.416H105.68V382.148H0V209.013H105.68V237.745H32.7726Z" fill="#F9F8F4"/>
<path d="M192.658 325.841L233.03 272.889H198.921L176.598 304.56L154.749 272.978H119.602L163.418 325.931L120.196 382.326H152.375L176.598 347.658L201.296 382.326H235.256L192.658 325.841Z" fill="#F9F8F4"/>
<path d="M366.91 295.803C362.422 287.589 355.715 280.801 347.555 276.213C339.687 271.804 330.808 269.513 321.789 269.564C313.133 269.36 304.627 271.85 297.447 276.688C292.123 280.375 287.7 285.215 284.504 290.846V273.037H253.631V439.612H284.504V364.072C287.698 369.729 292.121 374.598 297.447 378.319C304.627 383.157 313.133 385.647 321.789 385.443C330.807 385.481 339.682 383.191 347.555 378.794C355.728 374.169 362.434 367.339 366.91 359.085C371.754 349.24 374.272 338.416 374.272 327.444C374.272 316.473 371.754 305.648 366.91 295.803ZM344.824 344.927C342.254 349.65 338.42 353.565 333.752 356.236C329.118 358.855 323.876 360.206 318.553 360.154C313.718 360.113 308.978 358.802 304.809 356.354C300.215 353.694 296.429 349.837 293.855 345.194C291.064 339.72 289.608 333.663 289.608 327.518C289.608 321.374 291.064 315.317 293.855 309.843C296.411 305.179 300.2 301.308 304.809 298.653C308.978 296.204 313.718 294.894 318.553 294.853C323.88 294.797 329.126 296.16 333.752 298.801C338.426 301.45 342.262 305.358 344.824 310.08C347.558 315.481 348.982 321.45 348.982 327.503C348.982 333.557 347.558 339.525 344.824 344.927Z" fill="#F9F8F4"/>
<path d="M500.829 296.041C496.51 287.85 489.744 281.21 481.474 277.044C471.696 272.661 461.088 270.434 450.372 270.516C439.656 270.598 429.083 272.987 419.373 277.519C410.742 281.935 403.599 288.788 398.83 297.228C394.069 306.568 391.586 316.902 391.586 327.385C391.586 337.868 394.069 348.202 398.83 357.542C403.626 365.991 410.759 372.876 419.373 377.37C428.987 382.298 439.681 384.747 450.483 384.493C462.233 384.809 473.873 382.155 484.324 376.776C493.951 371.397 501.824 363.359 507.004 353.624L480.287 345.313C477.464 350.263 473.363 354.364 468.413 357.186C463.013 359.928 457.012 361.275 450.958 361.104C445.533 361.254 440.178 359.853 435.521 357.067C431.182 354.284 427.82 350.217 425.903 345.432C424.48 341.937 423.551 338.26 423.143 334.509H507.241C507.241 333.559 507.508 332.283 507.597 330.709C507.686 329.136 507.597 327.741 507.597 326.198C507.875 315.74 505.549 305.377 500.829 296.041ZM423.647 315.394C424.161 312.754 424.926 310.17 425.933 307.676C427.741 302.933 430.977 298.867 435.195 296.041C439.732 293.292 444.974 291.93 450.275 292.123C454.776 292.013 459.218 293.165 463.099 295.447C466.675 297.584 469.592 300.665 471.53 304.352C473.268 307.747 474.279 311.467 474.498 315.275L423.647 315.394Z" fill="#F9F8F4"/>
<path d="M605.911 278.825L591.899 304.945C590.032 303.176 587.911 301.695 585.606 300.553C583.104 299.447 580.385 298.919 577.65 299.009C574.162 298.867 570.729 299.913 567.914 301.977C565.125 304.22 563.06 307.234 561.977 310.644C560.526 314.964 559.842 319.505 559.958 324.061V382H529.738V272.77H559.899V286.246C562.472 282.386 565.685 278.994 569.398 276.213C574.132 272.455 579.977 270.368 586.022 270.277C589.884 270.26 593.714 270.985 597.302 272.414C600.694 273.741 603.667 275.956 605.911 278.825Z" fill="#F9F8F4"/>
<path d="M623.476 272.889V382.119H653.399V272.889H623.476ZM655.048 206.939C652.779 204.753 650.1 203.035 647.167 201.884C644.233 200.733 641.101 200.171 637.949 200.231C631.536 200.127 625.335 202.535 620.673 206.939C618.388 209.165 616.573 211.826 615.333 214.765C614.093 217.704 613.454 220.861 613.454 224.051C613.454 227.241 614.093 230.398 615.333 233.337C616.573 236.275 618.388 238.937 620.673 241.163C622.958 243.388 625.661 245.139 628.626 246.316C631.591 247.493 634.76 248.072 637.949 248.019C641.113 248.073 644.255 247.494 647.191 246.316C650.127 245.139 652.799 243.387 655.048 241.163C659.575 236.618 662.116 230.465 662.116 224.051C662.116 217.637 659.575 211.484 655.048 206.939Z" fill="#F9F8F4"/>
<path d="M781.877 296.041C777.558 287.85 770.792 281.21 762.522 277.044C752.743 272.661 742.135 270.434 731.419 270.516C720.703 270.598 710.13 272.987 700.42 277.519C691.79 281.935 684.647 288.788 679.878 297.228C675.116 306.568 672.634 316.902 672.634 327.385C672.634 337.868 675.116 348.202 679.878 357.542C684.674 365.991 691.807 372.876 700.42 377.37C710.035 382.298 720.729 384.747 731.53 384.493C743.281 384.809 754.92 382.155 765.372 376.776C774.998 371.397 782.872 363.359 788.051 353.624L761.334 345.313C758.512 350.263 754.411 354.364 749.46 357.186C744.06 359.928 738.06 361.275 732.005 361.104C726.581 361.254 721.226 359.853 716.569 357.067C712.23 354.284 708.867 350.217 706.951 345.432C705.527 341.937 704.598 338.26 704.19 334.509H788.289C788.289 333.559 788.556 332.283 788.645 330.709C788.734 329.136 788.645 327.741 788.645 326.198C788.923 315.74 786.597 305.377 781.877 296.041ZM704.695 315.394C705.209 312.754 705.974 310.17 706.981 307.676C708.789 302.933 712.025 298.867 716.242 296.041C720.779 293.292 726.021 291.93 731.323 292.123C735.824 292.013 740.266 293.165 744.147 295.447C747.722 297.584 750.639 300.665 752.577 304.352C754.316 307.747 755.327 311.467 755.546 315.275L704.695 315.394Z" fill="#F9F8F4"/>
<path d="M900.593 281.556C894.24 274.195 884.572 270.514 871.59 270.514C864.661 270.311 857.807 271.993 851.76 275.382C846.149 278.787 841.588 283.677 838.58 289.511V272.889H807.707V382.118H838.55V315.631C838.446 311.517 839.353 307.44 841.192 303.758C842.869 300.474 845.51 297.781 848.762 296.041C852.271 294.184 856.192 293.245 860.161 293.31C862.751 293.076 865.359 293.472 867.763 294.464C870.166 295.457 872.294 297.016 873.965 299.009C877.121 303.953 878.609 309.779 878.21 315.631V382.118H910.033V312.306C910.052 299.226 906.906 288.976 900.593 281.556Z" fill="#F9F8F4"/>
<path d="M975.229 299.84C980.112 297.063 985.643 295.629 991.26 295.684C995.777 295.695 1000.26 296.417 1004.56 297.821C1008.91 299.167 1013.04 301.169 1016.79 303.758C1020.27 306.106 1023.16 309.237 1025.22 312.9V281.437C1020.86 277.808 1015.81 275.102 1010.38 273.482C1003.49 271.384 996.319 270.382 989.122 270.514C978.292 270.348 967.58 272.791 957.893 277.638C948.907 282.14 941.344 289.044 936.045 297.584C930.832 306.672 928.089 316.967 928.089 327.444C928.089 337.921 930.832 348.216 936.045 357.304C941.313 365.9 948.881 372.85 957.893 377.369C967.58 382.216 978.292 384.659 989.122 384.493C996.318 384.61 1003.49 383.609 1010.38 381.525C1015.85 379.888 1020.92 377.094 1025.22 373.332V341.751C1023.2 345.366 1020.4 348.488 1017.03 350.893C1013.41 353.543 1009.4 355.625 1005.15 357.067C1000.72 358.577 996.063 359.339 991.378 359.323C985.775 359.39 980.251 357.999 975.348 355.286C970.59 352.649 966.616 348.798 963.83 344.125C960.904 339.083 959.425 333.332 959.556 327.503C959.444 321.752 960.923 316.083 963.83 311.119C966.595 306.44 970.522 302.555 975.229 299.84Z" fill="#F9F8F4"/>
<path d="M1151.23 296.041C1146.91 287.85 1140.15 281.21 1131.88 277.044C1122.1 272.661 1111.49 270.434 1100.78 270.516C1090.06 270.598 1079.49 272.987 1069.78 277.519C1061.15 281.935 1054 288.788 1049.23 297.228C1044.47 306.568 1041.99 316.902 1041.99 327.385C1041.99 337.868 1044.47 348.202 1049.23 357.542C1054.03 365.991 1061.16 372.876 1069.78 377.37C1079.39 382.298 1090.09 384.747 1100.89 384.493C1112.64 384.809 1124.28 382.155 1134.73 376.776C1144.36 371.397 1152.23 363.359 1157.41 353.624L1130.69 345.313C1127.87 350.263 1123.77 354.364 1118.82 357.186C1113.42 359.928 1107.42 361.275 1101.36 361.104C1095.94 361.254 1090.58 359.853 1085.93 357.067C1081.59 354.284 1078.22 350.217 1076.31 345.432C1074.88 341.937 1073.96 338.26 1073.55 334.509H1157.65C1157.65 333.559 1157.91 332.283 1158 330.709C1158.09 329.136 1158 327.741 1158 326.198C1158.28 315.74 1155.95 305.377 1151.23 296.041ZM1074.05 315.394C1074.57 312.754 1075.33 310.17 1076.34 307.676C1078.15 302.933 1081.38 298.867 1085.6 296.041C1090.14 293.292 1095.38 291.93 1100.68 292.123C1105.18 292.013 1109.62 293.165 1113.5 295.447C1117.08 297.584 1120 300.665 1121.93 304.352C1123.67 307.747 1124.68 311.467 1124.9 315.275L1074.05 315.394Z" fill="#F9F8F4"/>
<path d="M33.96 608.32V413.288H0V638.002H105.917V608.32H33.96Z" fill="#F9F8F4"/>
<path d="M217.771 541.329C213.286 535.859 207.365 531.748 200.672 529.456C192.667 526.636 184.223 525.269 175.737 525.419C166.389 525.288 157.082 526.692 148.189 529.575C141.041 531.901 134.092 534.8 127.409 538.242L138.808 559.019C141.147 557.473 143.609 556.123 146.17 554.982C149.973 553.218 153.954 551.865 158.044 550.946C162.789 549.81 167.652 549.252 172.531 549.283C175.526 549.253 178.515 549.572 181.436 550.233C183.945 550.749 186.327 551.758 188.442 553.202C190.364 554.551 191.883 556.398 192.835 558.544C193.847 560.988 194.332 563.618 194.26 566.262V577.897C190.027 575.595 185.518 573.84 180.843 572.673C174.827 571.162 168.64 570.444 162.438 570.536C148.802 570.536 138.274 573.623 130.853 579.797C127.174 582.845 124.253 586.704 122.316 591.071C120.379 595.438 119.481 600.195 119.691 604.967C119.481 611.66 121.347 618.254 125.034 623.845C128.575 629.015 133.461 633.121 139.164 635.717C145.131 638.422 151.613 639.799 158.163 639.754C164.702 639.776 171.188 638.568 177.28 636.192C183.074 633.983 188.19 630.3 192.123 625.507C192.868 624.569 193.543 623.577 194.142 622.539V637.38H223.827V560.206C224.074 553.4 221.932 546.722 217.771 541.329ZM194.26 593.925C194.394 598.647 193.157 603.307 190.698 607.341C188.423 610.961 185.226 613.911 181.436 615.89C177.464 617.9 173.064 618.918 168.612 618.858C165.475 618.896 162.363 618.29 159.469 617.077C156.836 615.998 154.57 614.184 152.938 611.853C151.327 609.43 150.498 606.57 150.564 603.661C150.463 600.855 151.207 598.084 152.701 595.706C154.351 593.399 156.673 591.657 159.351 590.72C163.086 589.413 167.032 588.809 170.987 588.939C176.654 588.903 182.296 589.703 187.73 591.313C189.965 591.969 192.148 592.792 194.26 593.777V593.925Z" fill="#F9F8F4"/>
<path d="M366.881 552.014C362.343 543.897 355.643 537.198 347.526 532.661C339.657 528.252 330.779 525.961 321.759 526.012C313.219 525.867 304.829 528.264 297.654 532.898C292.378 536.359 287.888 540.89 284.474 546.196V470.418H253.631V637.617H284.504V619.807C287.907 625.146 292.398 629.708 297.684 633.194C304.864 637.815 313.251 640.211 321.789 640.08C330.807 640.118 339.682 637.828 347.555 633.431C355.683 628.854 362.382 622.114 366.91 613.96C371.751 604.368 374.272 593.775 374.272 583.031C374.272 572.288 371.751 561.694 366.91 552.103L366.881 552.014ZM344.439 600.425C341.868 605.148 338.034 609.064 333.366 611.734C328.73 614.346 323.489 615.697 318.167 615.652C313.332 615.614 308.591 614.303 304.423 611.853C299.829 609.192 296.043 605.335 293.469 600.692C290.652 595.226 289.182 589.166 289.182 583.016C289.182 576.867 290.652 570.807 293.469 565.341C296.025 560.677 299.814 556.806 304.423 554.151C308.591 551.7 313.332 550.39 318.167 550.351C323.493 550.302 328.737 551.664 333.366 554.299C338.04 556.949 341.876 560.857 344.439 565.578C347.152 570.986 348.565 576.952 348.565 583.002C348.565 589.051 347.152 595.018 344.439 600.425Z" fill="#F9F8F4"/>
<path d="M431.802 601.939C427.1 597.462 420.855 594.965 414.362 594.965C407.869 594.965 401.625 597.462 396.922 601.939C394.655 604.156 392.866 606.815 391.667 609.75C390.467 612.686 389.881 615.836 389.946 619.006C389.926 622.104 390.534 625.174 391.733 628.031C392.932 630.888 394.697 633.472 396.922 635.628C400.271 639.079 404.57 641.458 409.273 642.464C413.976 643.469 418.872 643.055 423.34 641.275C427.807 639.494 431.646 636.427 434.368 632.463C437.09 628.498 438.573 623.815 438.63 619.006C438.693 615.849 438.122 612.711 436.949 609.78C435.776 606.848 434.026 604.181 431.802 601.939Z" fill="#F9F8F4"/>
<path d="M186.336 201.873C189.27 203.024 191.948 204.742 194.217 206.929C198.744 211.473 201.285 217.626 201.285 224.04C201.285 230.454 198.744 236.607 194.217 241.152C191.968 243.376 189.296 245.128 186.36 246.306C183.424 247.483 180.282 248.062 177.119 248.009C173.929 248.061 170.76 247.482 167.795 246.305C164.83 245.129 162.127 243.377 159.842 241.152C157.557 238.926 155.742 236.265 154.502 233.326C153.262 230.387 152.624 227.23 152.624 224.04C152.624 220.851 153.262 217.693 154.502 214.755C155.742 211.816 157.557 209.155 159.842 206.929C164.505 202.524 170.705 200.117 177.119 200.22C180.27 200.16 183.402 200.722 186.336 201.873Z" fill="#F9F8F4"/>
<path d="M278.514 201.873C281.448 203.024 284.126 204.742 286.396 206.929C290.922 211.473 293.464 217.626 293.464 224.04C293.464 230.454 290.922 236.607 286.396 241.152C284.146 243.376 281.475 245.128 278.539 246.306C275.602 247.483 272.46 248.062 269.297 248.009C266.107 248.061 262.939 247.482 259.974 246.305C257.009 245.129 254.306 243.377 252.02 241.152C249.736 238.926 247.92 236.265 246.68 233.326C245.441 230.387 244.802 227.23 244.802 224.04C244.802 220.851 245.441 217.693 246.68 214.755C247.92 211.816 249.736 209.155 252.02 206.929C256.683 202.524 262.883 200.117 269.297 200.22C272.448 200.16 275.58 200.722 278.514 201.873Z" fill="#F9F8F4"/>
<path d="M370.693 201.873C373.626 203.024 376.305 204.742 378.574 206.929C383.101 211.473 385.642 217.626 385.642 224.04C385.642 230.454 383.101 236.607 378.574 241.152C376.325 243.376 373.653 245.128 370.717 246.306C367.781 247.483 364.639 248.062 361.475 248.009C358.286 248.061 355.117 247.482 352.152 246.305C349.187 245.129 346.484 243.377 344.199 241.152C341.914 238.926 340.099 236.265 338.859 233.326C337.619 230.387 336.981 227.23 336.981 224.04C336.981 220.851 337.619 217.693 338.859 214.755C340.099 211.816 341.914 209.155 344.199 206.929C348.861 202.524 355.062 200.117 361.475 200.22C364.627 200.16 367.759 200.722 370.693 201.873Z" fill="#F9F8F4"/>
<path d="M462.871 201.873C465.805 203.024 468.483 204.742 470.753 206.929C475.279 211.473 477.82 217.626 477.82 224.04C477.82 230.454 475.279 236.607 470.753 241.152C468.503 243.376 465.832 245.128 462.895 246.306C459.959 247.483 456.817 248.062 453.654 248.009C450.464 248.061 447.296 247.482 444.331 246.305C441.366 245.129 438.662 243.377 436.377 241.152C434.093 238.926 432.277 236.265 431.037 233.326C429.798 230.387 429.159 227.23 429.159 224.04C429.159 220.851 429.798 217.693 431.037 214.755C432.277 211.816 434.093 209.155 436.377 206.929C441.04 202.524 447.24 200.117 453.654 200.22C456.805 200.16 459.937 200.722 462.871 201.873Z" fill="#F9F8F4"/>
<path d="M555.049 201.873C557.983 203.024 560.662 204.742 562.931 206.929C567.458 211.473 569.999 217.626 569.999 224.04C569.999 230.454 567.458 236.607 562.931 241.152C560.681 243.376 558.01 245.128 555.074 246.306C552.138 247.483 548.995 248.062 545.832 248.009C542.643 248.061 539.474 247.482 536.509 246.305C533.544 245.129 530.841 243.377 528.555 241.152C526.271 238.926 524.455 236.265 523.216 233.326C521.976 230.387 521.337 227.23 521.337 224.04C521.337 220.851 521.976 217.693 523.216 214.755C524.455 211.816 526.271 209.155 528.555 206.929C533.218 202.524 539.419 200.117 545.832 200.22C548.983 200.16 552.115 200.722 555.049 201.873Z" fill="#F9F8F4"/>
<path d="M662.202 224.286C662.202 237.579 651.426 248.355 638.133 248.355C624.839 248.355 613.516 237.579 613.516 224.286C613.516 210.992 624.839 200.216 638.133 200.216C651.426 200.216 662.202 210.992 662.202 224.286Z" fill="#FFFC46"/>
<path d="M739.431 201.873C742.365 203.024 745.043 204.742 747.313 206.929C751.839 211.473 754.381 217.626 754.381 224.04C754.381 230.454 751.839 236.607 747.313 241.152C745.063 243.376 742.392 245.128 739.456 246.306C736.519 247.483 733.377 248.062 730.214 248.009C727.024 248.061 723.856 247.482 720.891 246.305C717.926 245.129 715.223 243.377 712.937 241.152C710.653 238.926 708.837 236.265 707.597 233.326C706.358 230.387 705.719 227.23 705.719 224.04C705.719 220.851 706.358 217.693 707.597 214.755C708.837 211.816 710.653 209.155 712.937 206.929C717.6 202.524 723.8 200.117 730.214 200.22C733.365 200.16 736.497 200.722 739.431 201.873Z" fill="#F9F8F4"/>
<path d="M831.61 201.873C834.543 203.024 837.222 204.742 839.491 206.929C844.018 211.473 846.559 217.626 846.559 224.04C846.559 230.454 844.018 236.607 839.491 241.152C837.242 243.376 834.57 245.128 831.634 246.306C828.698 247.483 825.556 248.062 822.392 248.009C819.203 248.061 816.034 247.482 813.069 246.305C810.104 245.129 807.401 243.377 805.116 241.152C802.831 238.926 801.016 236.265 799.776 233.326C798.536 230.387 797.898 227.23 797.898 224.04C797.898 220.851 798.536 217.693 799.776 214.755C801.016 211.816 802.831 209.155 805.116 206.929C809.778 202.524 815.979 200.117 822.392 200.22C825.544 200.16 828.676 200.722 831.61 201.873Z" fill="#F9F8F4"/>
<path d="M923.788 201.873C926.722 203.024 929.4 204.742 931.67 206.929C936.196 211.473 938.738 217.626 938.738 224.04C938.738 230.454 936.196 236.607 931.67 241.152C929.42 243.376 926.749 245.128 923.812 246.306C920.876 247.483 917.734 248.062 914.571 248.009C911.381 248.061 908.213 247.482 905.248 246.305C902.283 245.129 899.579 243.377 897.294 241.152C895.01 238.926 893.194 236.265 891.954 233.326C890.715 230.387 890.076 227.23 890.076 224.04C890.076 220.851 890.715 217.693 891.954 214.755C893.194 211.816 895.01 209.155 897.294 206.929C901.957 202.524 908.157 200.117 914.571 200.22C917.722 200.16 920.854 200.722 923.788 201.873Z" fill="#F9F8F4"/>
<path d="M1015.97 201.873C1018.9 203.024 1021.58 204.742 1023.85 206.929C1028.37 211.473 1030.92 217.626 1030.92 224.04C1030.92 230.454 1028.37 236.607 1023.85 241.152C1021.6 243.376 1018.93 245.128 1015.99 246.306C1013.05 247.483 1009.91 248.062 1006.75 248.009C1003.56 248.061 1000.39 247.482 997.426 246.305C994.461 245.129 991.758 243.377 989.472 241.152C987.188 238.926 985.372 236.265 984.133 233.326C982.893 230.387 982.254 227.23 982.254 224.04C982.254 220.851 982.893 217.693 984.133 214.755C985.372 211.816 987.188 209.155 989.472 206.929C994.135 202.524 1000.34 200.117 1006.75 200.22C1009.9 200.16 1013.03 200.722 1015.97 201.873Z" fill="#F9F8F4"/>
</svg>
