<svg width="2099" height="1100" viewBox="0 0 2099 1100" fill="none" xmlns="http://www.w3.org/2000/svg">
<path d="M59.9111 54.2512V122.386L184.455 122.928V174.029H59.9111V323.431H0V0.00390625H193.626V54.2512H59.9111Z" fill="#F9F8F4"/>
<path d="M281.989 275.675C284.974 279.41 288.832 282.354 293.223 284.246C297.614 286.138 302.404 286.92 307.169 286.525C314.501 286.703 321.754 284.984 328.225 281.534C334.113 278.263 338.936 273.366 342.117 267.43C345.586 260.734 347.303 253.269 347.11 245.731V124.217H403.114V323.847H347.11V293.469C341.463 304.449 332.764 313.566 322.06 319.725C311.355 325.883 299.099 328.822 286.765 328.187C263.032 328.187 245.304 321.388 233.583 307.79C221.861 294.192 216 275.531 216 251.807V124H274.175V245.514C273.519 256.141 276.256 266.702 281.989 275.675Z" fill="#F9F8F4"/>
<path d="M554.039 123.154V170.458H519.307V322.785H465.04V170.458H430.743V123.154H465.04V53.7178H519.307V123.154H554.039Z" fill="#F9F8F4"/>
<path d="M651.262 274.776C654.243 278.514 658.1 281.46 662.492 283.353C666.885 285.245 671.676 286.026 676.441 285.626C683.772 285.796 691.024 284.078 697.497 280.635C703.373 277.346 708.191 272.454 711.39 266.531C714.858 259.834 716.576 252.37 716.382 244.832V123.318H772.386V322.948H716.382V292.569C710.735 303.55 702.037 312.667 691.332 318.825C680.627 324.984 668.372 327.923 656.037 327.288C632.268 327.288 614.541 320.489 602.855 306.891C591.169 293.293 585.309 274.631 585.272 250.907V123.101H643.23V244.615C642.639 255.265 645.452 265.828 651.262 274.776Z" fill="#F9F8F4"/>
<path d="M944.181 133.95L918.567 181.688C915.154 178.453 911.276 175.747 907.062 173.659C902.488 171.638 897.517 170.674 892.519 170.838C886.142 170.578 879.866 172.491 874.719 176.263C869.622 180.361 865.847 185.871 863.865 192.103C861.213 199.998 859.964 208.297 860.175 216.623V322.514H804.605V122.883H859.958V147.512C864.663 140.459 870.536 134.258 877.324 129.176C885.979 122.308 896.664 118.493 907.713 118.327C914.774 118.295 921.775 119.621 928.335 122.233C934.575 124.642 940.05 128.69 944.181 133.95V133.95Z" fill="#F9F8F4"/>
<path d="M1147.02 165.414C1139.12 150.444 1126.75 138.309 1111.63 130.695C1093.76 122.683 1074.37 118.614 1054.78 118.764C1035.19 118.914 1015.86 123.279 998.107 131.563C982.33 139.633 969.271 152.159 960.554 167.583C951.849 184.653 947.311 203.539 947.311 222.699C947.311 241.858 951.849 260.745 960.554 277.814C969.321 293.255 982.36 305.838 998.107 314.051C1015.68 323.058 1035.23 327.534 1054.98 327.071C1076.46 327.647 1097.74 322.796 1116.84 312.966C1134.44 303.135 1148.84 288.445 1158.3 270.653L1109.46 255.464C1104.3 264.511 1096.81 272.005 1087.76 277.163C1077.88 282.175 1066.91 284.637 1055.85 284.324C1045.93 284.597 1036.14 282.038 1027.63 276.946C1019.7 271.86 1013.55 264.426 1010.05 255.681C1007.44 249.293 1005.74 242.574 1005 235.718H1158.74C1159.01 233.982 1159.23 231.649 1159.39 228.774C1159.55 225.899 1159.39 223.35 1159.39 220.529C1159.9 201.416 1155.64 182.477 1147.02 165.414ZM1010.05 186.678C1013.35 178.009 1019.27 170.579 1026.98 165.414C1035.27 160.39 1044.85 157.901 1054.54 158.253C1062.77 158.052 1070.89 160.157 1077.99 164.329C1084.52 168.233 1089.86 173.865 1093.4 180.603C1096.58 186.807 1098.43 193.607 1098.83 200.566H1005.87C1006.82 195.815 1008.22 191.166 1010.05 186.678V186.678Z" fill="#F9F8F4"/>
<path d="M59.9111 435.425V499.654H184.509V551.298H59.9111V646.689H193.192V699.2H0V382.914H193.192V435.425H59.9111Z" fill="#F9F8F4"/>
<path d="M430.084 500L356.281 596.777L434.425 699.847H372.344L327.193 636.486L282.911 699.847H224.085L303.099 596.777L223 500H287.252L327.193 557.719L368.002 500H430.084Z" fill="#F9F8F4"/>
<path d="M672.745 541.395C664.54 526.382 652.28 513.977 637.363 505.591C622.979 497.533 606.748 493.346 590.259 493.44C574.435 493.068 558.886 497.617 545.76 506.459C536.028 513.199 527.941 522.043 522.099 532.336V499.516H465.661V763.5H522.099V666.164C527.938 676.503 536.024 685.401 545.76 692.203C558.886 701.045 574.435 705.594 590.259 705.222C606.745 705.291 622.969 701.106 637.363 693.07C652.302 684.617 664.563 672.136 672.745 657.05C681.599 639.058 686.204 619.274 686.204 599.222C686.204 579.171 681.599 559.387 672.745 541.395ZM620.649 629.709C615.999 637.811 609.151 644.431 600.895 648.805C592.524 653.172 583.204 655.408 573.762 655.314C565.193 655.261 556.769 653.1 549.233 649.021C541.107 644.646 534.346 638.114 529.697 630.144C524.705 620.639 522.097 610.065 522.097 599.331C522.097 588.597 524.705 578.023 529.697 568.518C534.315 560.523 541.083 553.983 549.233 549.64C556.759 545.537 565.189 543.374 573.762 543.348C583.204 543.254 592.524 545.49 600.895 549.857C609.163 554.214 616.016 560.838 620.649 568.953C625.498 578.345 628.029 588.761 628.029 599.331C628.029 609.901 625.498 620.317 620.649 629.709Z" fill="#F9F8F4"/>
<path d="M914.559 541.829C906.663 526.86 894.295 514.724 879.177 507.11C861.301 499.098 841.908 495.029 822.319 495.179C802.729 495.329 783.401 499.694 765.65 507.978C749.873 516.048 736.814 528.574 728.097 543.998C719.392 561.068 714.854 579.954 714.854 599.114C714.854 618.273 719.392 637.16 728.097 654.229C736.864 669.67 749.903 682.252 765.65 690.466C783.226 699.473 802.775 703.948 822.522 703.485C844.002 704.062 865.28 699.211 884.386 689.381C901.985 679.55 916.379 664.86 925.847 647.068L877.006 631.879C871.847 640.926 864.349 648.42 855.299 653.578C845.428 658.59 834.458 661.052 823.39 660.739C813.473 661.012 803.684 658.453 795.171 653.361C787.238 648.275 781.092 640.841 777.588 632.096C774.986 625.708 773.288 618.989 772.542 612.133H925.847C926.118 610.397 926.335 608.064 926.498 605.189C926.661 602.314 926.498 599.765 926.498 596.944C927.14 577.868 923.038 558.93 914.559 541.829V541.829ZM777.588 563.093C780.894 554.424 786.81 546.994 794.52 541.829C802.813 536.805 812.396 534.316 822.088 534.668C830.316 534.467 838.437 536.572 845.531 540.744C852.068 544.648 857.4 550.28 860.943 557.018C864.121 563.222 865.969 570.022 866.37 576.981H773.41C774.362 572.23 775.761 567.581 777.588 563.093Z" fill="#F9F8F4"/>
<path d="M1097.77 510.365L1072.15 558.103C1068.74 554.868 1064.86 552.162 1060.65 550.074C1056.07 548.053 1051.1 547.089 1046.1 547.253C1039.73 546.993 1033.45 548.906 1028.3 552.678C1023.21 556.777 1019.43 562.286 1017.45 568.518C1014.8 576.413 1013.55 584.712 1013.76 593.038V698.929H958.407V499.299H1013.54V523.927C1018.25 516.874 1024.12 510.673 1030.91 505.591C1039.56 498.723 1050.25 494.908 1061.3 494.742C1068.36 494.71 1075.36 496.036 1081.92 498.648C1088.16 501.057 1093.63 505.105 1097.77 510.365V510.365Z" fill="#F9F8F4"/>
<path d="M1180.47 499.514V699.145H1125.77V499.514H1180.47Z" fill="#F9F8F4"/>
<path d="M1415.34 541.829C1407.44 526.86 1395.07 514.724 1379.96 507.11C1362.08 499.098 1342.69 495.029 1323.1 495.179C1303.51 495.329 1284.18 499.694 1266.43 507.978C1250.65 516.048 1237.59 528.574 1228.87 543.998C1220.17 561.068 1215.63 579.954 1215.63 599.114C1215.63 618.273 1220.17 637.16 1228.87 654.229C1237.64 669.67 1250.68 682.252 1266.43 690.466C1284 699.473 1303.55 703.948 1323.3 703.485C1344.78 704.062 1366.06 699.211 1385.16 689.381C1402.76 679.55 1417.16 664.86 1426.62 647.068L1377.78 631.879C1372.62 640.926 1365.13 648.42 1356.08 653.578C1346.21 658.59 1335.24 661.052 1324.17 660.739C1314.25 661.012 1304.46 658.453 1295.95 653.361C1288.02 648.275 1281.87 640.841 1278.37 632.096C1275.76 625.708 1274.07 618.989 1273.32 612.133H1427.06C1427.33 610.397 1427.55 608.064 1427.71 605.189C1427.87 602.314 1427.71 599.765 1427.71 596.944C1428.22 577.831 1423.97 558.892 1415.34 541.829V541.829ZM1278.58 563.093C1281.89 554.424 1287.81 546.994 1295.52 541.829C1303.81 536.805 1313.39 534.316 1323.08 534.668C1331.31 534.467 1339.43 536.572 1346.53 540.744C1353.06 544.648 1358.4 550.28 1361.94 557.018C1365.12 563.222 1366.96 570.022 1367.36 576.981H1274.19C1275.21 572.223 1276.68 567.573 1278.58 563.093V563.093Z" fill="#F9F8F4"/>
<path d="M1583.74 547.253C1580.69 543.619 1576.81 540.774 1572.42 538.961C1568.04 537.147 1563.28 536.419 1558.56 536.837C1551.3 536.711 1544.13 538.428 1537.72 541.828C1531.76 545.008 1526.91 549.928 1523.83 555.932C1520.48 562.665 1518.84 570.117 1519.05 577.631V699.145H1462.61V499.515H1519.05V529.894C1524.55 519.232 1532.89 510.296 1543.15 504.072C1554.2 497.874 1566.73 494.798 1579.4 495.175C1603.13 495.175 1620.78 501.902 1632.36 515.355C1643.94 528.809 1649.73 547.542 1649.73 571.556V699.145H1591.33V577.631C1592.11 566.954 1589.45 556.308 1583.74 547.253V547.253Z" fill="#F9F8F4"/>
<path d="M1743.8 629.708C1748.88 638.259 1756.15 645.301 1764.86 650.105C1773.8 655.069 1783.88 657.612 1794.11 657.483C1802.69 657.513 1811.22 656.12 1819.34 653.36C1827.11 650.714 1834.42 646.91 1841.05 642.077C1847.2 637.667 1852.31 631.964 1856.03 625.369V683.088C1848.14 689.939 1838.9 695.042 1828.89 698.06C1816.28 701.865 1803.16 703.695 1789.98 703.485C1770.2 703.795 1750.64 699.329 1732.95 690.465C1716.46 682.221 1702.62 669.515 1693.01 653.794C1683.57 637.166 1678.65 618.361 1678.73 599.245C1678.8 580.129 1683.88 561.364 1693.44 544.811C1703.11 529.191 1716.94 516.569 1733.38 508.357C1751.07 499.494 1770.64 495.028 1790.42 495.338C1803.59 495.101 1816.72 496.931 1829.33 500.763C1839.25 503.747 1848.48 508.691 1856.46 515.301V573.02C1852.68 566.338 1847.41 560.619 1841.05 556.312C1834.18 551.6 1826.64 547.943 1818.69 545.462C1810.82 542.899 1802.6 541.581 1794.33 541.556C1784.21 541.459 1774.24 544.012 1765.41 548.961C1756.59 553.91 1749.21 561.082 1744.02 569.765C1738.69 578.831 1735.96 589.194 1736.15 599.71C1735.93 610.218 1738.58 620.587 1743.8 629.708V629.708Z" fill="#F9F8F4"/>
<path d="M2086.56 541.829C2078.66 526.86 2066.29 514.724 2051.17 507.11C2033.3 499.098 2013.9 495.029 1994.31 495.179C1974.72 495.329 1955.4 499.694 1937.65 507.978C1921.87 516.048 1908.81 528.574 1900.09 543.998C1891.39 561.068 1886.85 579.954 1886.85 599.114C1886.85 618.273 1891.39 637.16 1900.09 654.229C1908.86 669.67 1921.9 682.252 1937.65 690.466C1955.22 699.473 1974.77 703.948 1994.52 703.485C2016 704.062 2037.28 699.211 2056.38 689.381C2073.98 679.55 2088.38 664.86 2097.84 647.068L2049 631.879C2043.84 640.926 2036.35 648.42 2027.3 653.578C2017.42 658.59 2006.45 661.052 1995.39 660.739C1985.47 661.012 1975.68 658.453 1967.17 653.361C1959.23 648.275 1953.09 640.841 1949.58 632.096C1946.98 625.708 1945.28 618.989 1944.54 612.133H2098.28C2098.55 610.397 2098.77 608.064 2098.93 605.189C2099.09 602.314 2098.93 599.765 2098.93 596.944C2099.44 577.831 2095.18 558.892 2086.56 541.829ZM1949.58 563.093C1952.89 554.424 1958.81 546.994 1966.52 541.829C1974.81 536.805 1984.39 534.316 1994.08 534.668C2002.31 534.467 2010.43 536.572 2017.53 540.744C2024.06 544.648 2029.4 550.28 2032.94 557.018C2036.12 563.222 2037.97 570.022 2038.37 576.981H1945.41C1946.36 572.23 1947.76 567.581 1949.58 563.093V563.093Z" fill="#F9F8F4"/>
<path d="M62.0818 759.326V1033.15H193.626V1087.4H0V759.326H62.0818Z" fill="#F9F8F4"/>
<path d="M413.354 912.097C405.154 902.1 394.33 894.586 382.096 890.398C367.462 885.244 352.024 882.746 336.511 883.02C319.422 882.781 302.409 885.347 286.151 890.615C273.084 894.868 260.381 900.165 248.164 906.455L269.003 944.428C273.278 941.602 277.779 939.135 282.461 937.051C289.414 933.827 296.69 931.353 304.168 929.673C312.841 927.597 321.733 926.577 330.65 926.635C336.126 926.58 341.59 927.163 346.931 928.371C351.517 929.313 355.871 931.157 359.738 933.796C363.252 936.262 366.028 939.637 367.769 943.56C369.618 948.027 370.505 952.833 370.374 957.665V978.93C362.634 974.723 354.392 971.515 345.845 969.382C334.848 966.622 323.537 965.309 312.2 965.476C287.273 965.476 268.026 971.118 254.459 982.402C247.735 987.973 242.394 995.026 238.854 1003.01C235.313 1010.99 233.671 1019.68 234.055 1028.4C233.671 1040.64 237.083 1052.69 243.823 1062.9C250.295 1072.35 259.227 1079.86 269.654 1084.6C280.561 1089.55 292.41 1092.06 304.385 1091.98C316.34 1092.02 328.195 1089.81 339.333 1085.47C349.924 1081.43 359.277 1074.7 366.467 1065.94C367.829 1064.23 369.063 1062.41 370.157 1060.52V1087.64H424.424V946.653C424.888 934.195 420.971 921.968 413.354 912.097V912.097ZM363.862 1032.8C359.702 1039.41 353.859 1044.8 346.931 1048.42C339.669 1052.09 331.625 1053.96 323.487 1053.85C317.752 1053.91 312.063 1052.81 306.773 1050.59C301.96 1048.62 297.816 1045.3 294.834 1041.04C291.888 1036.61 290.373 1031.39 290.493 1026.07C290.308 1020.94 291.67 1015.88 294.4 1011.53C297.416 1007.32 301.662 1004.13 306.556 1002.42C313.385 1000.03 320.597 998.927 327.829 999.164C338.189 999.099 348.502 1000.56 358.435 1003.5C362.523 1004.7 366.513 1006.21 370.374 1008.01V1008.28C370.618 1016.91 368.356 1025.42 363.862 1032.8Z" fill="#F9F8F4"/>
<path d="M672.744 930.947C664.448 916.114 652.201 903.871 637.362 895.578C622.978 887.52 606.747 883.333 590.258 883.427C574.646 883.162 559.308 887.542 546.193 896.012C536.548 902.337 528.339 910.617 522.098 920.315V821.5H465.66V1087.4H522.098V1054.85C528.32 1064.61 536.53 1072.94 546.193 1079.31C559.319 1087.76 574.65 1092.14 590.258 1091.9C606.744 1091.97 622.968 1087.78 637.362 1079.75C652.219 1071.38 664.467 1059.06 672.744 1044.16C681.593 1026.63 686.203 1007.27 686.203 987.636C686.203 968.001 681.593 948.64 672.744 931.11V930.947ZM620.648 1018.39C616.029 1026.74 609.193 1033.65 600.894 1038.36C592.606 1042.99 583.255 1045.38 573.761 1045.3C565.139 1045.22 556.687 1042.9 549.232 1038.57C541.053 1033.88 534.302 1027.05 529.696 1018.83C524.704 1009.17 522.099 998.454 522.099 987.581C522.099 976.709 524.704 965.995 529.696 956.335C534.286 948.097 541.042 941.269 549.232 936.589C556.676 932.235 565.136 929.915 573.761 929.862C583.257 929.764 592.613 932.158 600.894 936.806C609.205 941.497 616.045 948.41 620.648 956.769C625.5 966.316 628.029 976.873 628.029 987.581C628.029 998.29 625.5 1008.85 620.648 1018.39Z" fill="#F9F8F4"/>
<path d="M725.914 1011.96C730.641 1007.02 736.287 1003.07 742.527 1000.33C748.768 997.597 755.482 996.127 762.286 996.008C769.089 995.889 775.85 997.124 782.18 999.642C788.511 1002.16 794.289 1005.91 799.183 1010.68C804.077 1015.45 807.993 1021.15 810.705 1027.45C813.418 1033.75 814.874 1040.52 814.992 1047.39C815.11 1054.26 813.886 1061.08 811.392 1067.47C808.897 1073.86 805.18 1079.69 800.452 1084.63C790.504 1094.48 777.122 1100 763.183 1100C749.244 1100 735.862 1094.48 725.914 1084.63C721.185 1079.86 717.435 1074.19 714.876 1067.96C712.317 1061.72 711 1055.04 711 1048.29C711 1041.55 712.317 1034.87 714.876 1028.63C717.435 1022.4 721.185 1016.73 725.914 1011.96V1011.96Z" fill="#F9F8F4"/>
<path d="M1115.91 372.963C1120.64 368.023 1126.29 364.072 1132.53 361.334C1138.77 358.597 1145.48 357.127 1152.29 357.008C1159.09 356.889 1165.85 358.124 1172.18 360.642C1178.51 363.159 1184.29 366.911 1189.18 371.682C1194.08 376.453 1197.99 382.151 1200.71 388.449C1203.42 394.747 1204.87 401.523 1204.99 408.389C1205.11 415.255 1203.89 422.078 1201.39 428.467C1198.9 434.856 1195.18 440.687 1190.45 445.627C1180.5 455.48 1167.12 461 1153.18 461C1139.24 461 1125.86 455.48 1115.91 445.627C1111.19 440.856 1107.43 435.192 1104.88 428.958C1102.32 422.724 1101 416.042 1101 409.295C1101 402.547 1102.32 395.865 1104.88 389.631C1107.43 383.397 1111.19 377.734 1115.91 372.963Z" fill="#FFFC46"/>
</svg>
